<?xml version="1.0" encoding="UTF-8"?>
<svg id="Layer_2" xmlns="http://www.w3.org/2000/svg" viewBox="0 0 308.5 500">
  <defs>
    <style>
      .cls-1 {
        fill: #00273d;
      }

      .cls-2 {
        fill: #fdff87;
      }

      .cls-3 {
        fill: #ff935b;
      }

      .cls-4 {
        fill: #2acecc;
      }

      .cls-5 {
        fill: #ff5713;
      }

      .cls-6 {
        fill: #009bd0;
      }

      .cls-7 {
        fill: #ffc700;
      }
    </style>
  </defs>
  <g id="Layer_1-2" data-name="Layer_1">
    <g>
      <polygon class="cls-6" points="154.2 1.89 154.2 185.37 306.5 254.59 154.2 1.89"/>
      <polygon class="cls-4" points="154.2 1.89 1.91 254.59 154.2 185.37 154.2 1.89"/>
      <polygon class="cls-5" points="154.2 373.45 154.2 498.09 306.59 283.48 154.2 373.45"/>
      <polygon class="cls-3" points="154.2 498.09 154.2 373.45 1.91 283.47 154.2 498.09"/>
      <polygon class="cls-6" points="154.2 344.62 306.5 254.59 154.2 185.37 154.2 344.62"/>
      <polygon class="cls-4" points="1.91 254.6 154.2 344.62 154.2 185.37 1.91 254.6"/>
      <path class="cls-2" d="M76.79,236.74l-49.51,32.86-25.37-15,65.34-29.7c2.28,3.44,5.52,7.54,9.53,11.84Z"/>
      <path class="cls-2" d="M104.47,259.96l-26.42,39.66-25.37-15.02,36.66-35.82c4.6,3.89,9.66,7.7,15.13,11.19Z"/>
      <path class="cls-2" d="M138.51,274.56l-9.69,55.05-25.37-15,17.91-45.62c5.52,2.39,11.24,4.31,17.15,5.57Z"/>
      <path class="cls-7" d="M306.54,254.6l-25.37,15-49.51-32.86c3.99-4.31,7.2-8.4,9.48-11.84"/>
      <polygon class="cls-7" points="154.26 185.37 154.29 185.4 154.26 185.4 154.26 185.37"/>
      <path class="cls-7" d="M255.77,284.59l-25.37,15.02-26.42-39.66c5.46-3.52,10.53-7.33,15.13-11.21l36.66,35.85Z"/>
      <path class="cls-7" d="M205,314.61l-25.37,15-9.69-55.07c5.91-1.23,11.63-3.15,17.15-5.54l17.91,45.62Z"/>
      <path class="cls-7" d="M241.15,224.89c-11.65,17.6-47.51,51.39-86.94,51.39v-90.91l86.94,39.52Z"/>
      <path class="cls-2" d="M67.26,224.89c11.65,17.6,47.51,51.39,86.94,51.39v-90.91s-86.94,39.52-86.94,39.52Z"/>
      <g>
        <path class="cls-1" d="M308,282.19c-.61-.66-1.6-.81-2.37-.35l-151.42,89.4L2.88,281.83c-.77-.46-1.77-.31-2.37.35-.61.66-.67,1.66-.15,2.39l152.3,214.62s0,0,0,0c.16.22.38.4.62.54.05.03.1.05.15.08.07.03.13.08.2.1.19.06.39.09.58.09,0,0,.02,0,.03,0,.18,0,.37-.03.55-.09.07-.02.12-.06.18-.09.07-.03.12-.06.19-.09.23-.14.44-.3.6-.52,0,0,0,0,0,0l152.39-214.62c.52-.73.46-1.73-.15-2.39ZM152.3,374.54v117.57L8.64,289.67l143.66,84.87ZM156.11,492.11v-117.57l143.75-84.88-143.75,202.45Z"/>
        <path class="cls-1" d="M.02,254.57c0,.3.06.59.19.86,0,.02,0,.04.02.06.02.03.06.05.08.08.06.1.1.2.18.28.09.1.2.14.3.22.06.05.09.12.15.16l25.37,15s.01,0,.01,0l36.18,21.39,14.57,8.63s.03,0,.05.01l25.35,14.98s0,0,0,0l25.37,15h0l25.39,15.01s0,0,.01,0,0,0,.01.01c.03.02.06,0,.09.02.26.13.54.23.86.23h0s0,0,0,0c0,0,.01,0,.02,0,0,0,.02,0,.02,0,.33,0,.62-.1.89-.25,0,0,0,0,.01,0,0,0,0,0,.01-.01s0,0,.01,0l25.35-14.99s.05,0,.08-.02l25.37-15s.06-.05.09-.08l25.19-14.89s.08-.01.12-.03l25.37-15.02s.02-.02.03-.03l25.27-14.94s.06,0,.09-.02l25.37-15c.11-.06.15-.18.24-.25.05-.05.12-.07.17-.13.04-.05.07-.11.1-.16.09-.12.17-.22.22-.35.09-.21.13-.42.14-.64,0-.07.05-.13.05-.21,0-.08-.06-.14-.07-.22-.03-.2-.1-.39-.19-.57-.04-.08-.07-.16-.12-.24L155.84.91s-.04-.04-.06-.07c-.06-.09-.14-.18-.22-.26-.07-.07-.13-.14-.2-.19-.08-.06-.17-.11-.27-.16-.09-.05-.18-.1-.28-.13-.03-.01-.06-.03-.1-.04-.07-.02-.13-.01-.2-.02-.1-.02-.2-.03-.31-.03-.11,0-.21.02-.32.03-.06.01-.13,0-.19.02-.03,0-.06.03-.09.04-.1.03-.19.08-.29.13-.09.05-.18.09-.25.15-.08.06-.14.13-.21.2-.08.08-.16.16-.22.26-.02.03-.04.04-.06.07L.27,253.61c-.15.25-.22.52-.24.8,0,.03-.03.05-.03.09,0,.03.02.05.02.08ZM256.05,282.2l-34.18-33.42c3.7-3.22,7.08-6.47,10.04-9.59l45.64,30.29-21.51,12.71ZM230.97,297.03l-24.33-36.53c4.23-2.81,8.38-5.89,12.38-9.19l33.64,32.9-21.68,12.82ZM205.95,311.81l-16.43-41.86c4.83-2.19,9.47-4.71,13.87-7.44l24.29,36.46-21.73,12.84ZM181.03,326.55l-8.89-50.54c.12-.03.24-.06.35-.09.42-.1.83-.21,1.24-.32,4.05-1.03,8.16-2.38,12.3-4.08l16.6,42.27-21.6,12.77ZM80.76,298.99l24.29-36.46c4.4,2.74,9.05,5.25,13.88,7.44l-16.44,41.86-21.73-12.84ZM64.01,289.09l-8.22-4.87,33.65-32.88c3.03,2.51,6.16,4.82,9.31,7.03.08.06.17.12.25.18.94.65,1.86,1.34,2.81,1.97l-24.34,36.54-13.46-7.96ZM30.87,269.5l45.64-30.29c2.97,3.12,6.35,6.37,10.06,9.6l-34.19,33.4-21.51-12.71ZM237.34,226.98c-.5.67-1.02,1.34-1.56,2.03-.43.55-.89,1.11-1.36,1.67-.04.04-.07.09-.11.13-5.31,6.38-12.82,13.87-21.87,20.83-.3.23-.6.46-.9.69-.62.47-1.25.94-1.88,1.4-.52.38-1.05.75-1.57,1.13-.95.67-1.91,1.33-2.88,1.99-.5.33-1,.67-1.5,1-5.42,3.53-11.24,6.75-17.36,9.39,0,0,0,0-.01,0-1.35.58-2.7,1.13-4.04,1.64-.22.08-.44.16-.66.24-1.1.41-2.2.79-3.29,1.15-.29.09-.57.19-.86.28-2.67.85-5.33,1.56-7.94,2.11-.04,0-.07.03-.11.05-4.35.93-8.79,1.5-13.29,1.63v-85.99l30.48,13.85,51.64,23.47c-.15.21-.29.42-.45.64-.16.22-.32.44-.49.66ZM136.31,276.02l-8.9,50.54-21.6-12.77,16.6-42.29c1.94.8,3.88,1.51,5.82,2.17.03,0,.05.02.08.03,1.12.38,2.23.73,3.34,1.06.1.03.2.06.3.09,1.03.3,2.06.58,3.09.84.21.05.41.11.62.16.22.05.43.12.65.17ZM138.93,272.71s-.02,0-.03-.01c-2.72-.58-5.48-1.33-8.26-2.23-.06-.02-.12-.04-.18-.06-2.77-.9-5.56-1.96-8.35-3.17-.03-.01-.06,0-.09-.02-5.8-2.51-11.34-5.54-16.52-8.87,0,0,0,0,0,0-2.36-1.51-4.7-3.12-7.02-4.82-.42-.31-.84-.62-1.26-.94-.6-.45-1.19-.9-1.78-1.36-1.24-.96-2.45-1.93-3.62-2.9-.07-.06-.15-.12-.22-.18-5.12-4.26-9.62-8.61-13.41-12.7,0,0,0,0,0-.01-.87-.94-1.72-1.87-2.53-2.81-.2-.23-.38-.44-.57-.67-.52-.6-1.02-1.2-1.51-1.8-.29-.36-.59-.72-.87-1.07-.54-.68-1.07-1.36-1.57-2.03-.24-.32-.46-.62-.69-.93-.11-.15-.21-.3-.32-.45l38.62-17.55,43.55-19.79v86.02c-4.52-.13-8.99-.7-13.37-1.64ZM6.03,254.82l60.55-27.52c2.03,2.9,4.51,5.99,7.29,9.09l-46.65,30.96-21.19-12.53ZM140.05,276.8c4.02.77,8.11,1.23,12.25,1.34v63.14l-21.38-12.64,9.13-51.84ZM156.16,278.14c4.14-.11,8.23-.57,12.25-1.34l9.12,51.82-21.37,12.63v-63.11ZM234.57,236.38c2.31-2.59,4.41-5.18,6.23-7.68.32-.44.64-.87.93-1.29.03-.04.06-.08.08-.12l35.6,16.17.27.12,24.7,11.23-21.18,12.52-46.64-30.95ZM277.27,239.21l-.22-.1-120.93-54.97V8.75l145.58,241.55-24.42-11.09ZM152.3,8.75v175.39l-26.55,12.07-55.1,25.05-63.93,29.06L152.3,8.75Z"/>
      </g>
    </g>
  </g>
</svg>